<?xml version="1.0" encoding="utf-8"?>
<!-- Generator: Adobe Illustrator 19.0.0, SVG Export Plug-In . SVG Version: 6.00 Build 0)  -->
<svg version="1.1" id="Layer_1" xmlns="http://www.w3.org/2000/svg" xmlns:xlink="http://www.w3.org/1999/xlink" x="0px" y="0px"
	 viewBox="0 0 500 500" style="enable-background:new 0 0 500 500;" xml:space="preserve">
<style type="text/css">
	.st0{fill:#CC0000;}
</style>
<g id="XMLID_1_">
	<path id="XMLID_11_" class="st0" d="M79,205h78.5l-3.3,25.7H75.8L79,205z M74.3,240.1H153l-2.4,20.9h-49.1l-1.3,10h49.2l-3.1,23.9
		H67.5L74.3,240.1z M158.8,230.7c0,0,0.5-8.8,2.7-13.3c2.1-4.3,4.8-7.4,9.4-10c2.7-1.5,7.6-2.4,7.6-2.4h141.4c0,0,5.9,0.1,8.5,1.1
		c2.7,1.1,6.7,2.8,8.8,7.9c2.1,4.9,1.6,6.5,1.6,11.4c0,4.8-0.1,5.2-0.1,5.2H158.8z M157.5,240.3h72.4c0,0,6.4,0,9.4,1.8
		c3.1,2.1,4.5,4.6,5.4,8.5c0.9,4-1.6,24-3,28.9c-1.6,4.8-3.4,9.3-10.9,13c-6.7,3.4-16.9,2.3-16.9,2.3h-62.5l3.7-23.9h58.5l1.2-10.1
		h-40.4c0,0-6.6,0.9-12.7-4.4c-3.7-3.2-4.2-8.1-4.4-10.2C157.1,245,157.5,240.3,157.5,240.3z M251.6,240.3H337c0,0-0.8,9.9-3.1,13.4
		c-2.3,3.6-4.4,5.6-8.3,6.5c-4,0.9-9.9,0.9-9.9,0.9h-37.1l-3.9,33.8h-29.8L251.6,240.3z M342.8,230.9h88.7c0,0,1.7-7.8,0.8-12.6
		c-0.9-4.9-3.1-8.2-6.7-10.5c-4.7-3.3-13.4-2.7-13.3-2.7c-0.1,0-65.9,0-65.9,0L342.8,230.9z M341.6,240.3H371l-6.7,54.5h-29.2
		L341.6,240.3z M400.7,240.6h29.1l-6.7,54.3h-29L400.7,240.6z"/>
</g>
</svg>
